<svg id="extd8ojJN7i1" xmlns="http://www.w3.org/2000/svg" xmlns:xlink="http://www.w3.org/1999/xlink" viewBox="0 0 300 300" shape-rendering="geometricPrecision" text-rendering="geometricPrecision"><defs><linearGradient id="extd8ojJN7i46-fill" x1="-0.10282" y1="0.495847" x2="1" y2="0.5" spreadMethod="pad" gradientUnits="objectBoundingBox" gradientTransform="translate(0 0)"><stop id="extd8ojJN7i46-fill-0" offset="40.3983%" stop-color="#69848b"/><stop id="extd8ojJN7i46-fill-1" offset="76%" stop-color="#fff"/><stop id="extd8ojJN7i46-fill-2" offset="82.4037%" stop-color="#b0b9b9"/><stop id="extd8ojJN7i46-fill-3" offset="100%" stop-color="#989393"/></linearGradient></defs><ellipse rx="73.360151" ry="73.026695" transform="translate(139.260898 172.197457)" fill="#b493d3" stroke-width="0"/><rect width="170.062168" height="108.706406" rx="0" ry="0" transform="matrix(1.015686 0 0 0.68098 53.896382 88.500279)" fill="#b493d4" stroke-width="0"/><ellipse rx="104.945376" ry="109.669605" transform="matrix(.209003 0 0 0.144616 111.38435 247.476221)" fill="#b493d3" stroke-width="0"/><ellipse rx="104.945376" ry="109.669605" transform="matrix(.209003 0 0 0.144616 166.725319 247.476221)" fill="#b493d3" stroke-width="0"/><path d="M235.51921,142.82718c22.255919,25.125061,40.92254,40.678669,50.97027,58.625138c7.350044,13.128073-67.918519,11.925432-75.696513,1.994052-11.244161-14.357176-1.604477-7.72604,1.994043-27.51792.94122-5.1767,13.71029-34.31717,18.74409-32.30364" transform="matrix(-1 0 0 1 290.149083 3.341232)" fill="#b493d3" stroke-width="0.6"/><path d="M235.51921,142.82718c22.255919,25.125061,40.92254,40.678669,50.97027,58.625138c7.350044,13.128073-67.918519,11.925432-75.696513,1.994052-11.244161-14.357176-1.604477-7.72604,1.994043-27.51792.94122-5.1767,13.71029-34.31717,18.74409-32.30364" transform="translate(-9.205027 1.340501)" fill="#b493d3" stroke-width="0.6"/><path d="M67.901479,105.172955c0,0-20.674224-38.013896,18.673493-45.349911c19.348827,0,29.344061,11.337478,46.016822,22.674955c10.774395,7.326588,10.003657,4.001463,10.003657,4.001463L67.901479,105.172955Z" transform="translate(-8.669837 2.000731)" fill="#b493d3" stroke-width="0.6"/><path d="M67.901479,105.172955c0,0-20.674224-38.013896,18.673493-45.349911c19.348827,0,29.344061,11.337478,46.016822,22.674955c10.774395,7.326588,10.003657,4.001463,10.003657,4.001463L67.901479,105.172955Z" transform="matrix(-1 0 0 1 289.192363 2.667641)" fill="#b493d3" stroke-width="0.6"/><rect width="65.204174" height="76.440849" rx="0" ry="0" transform="matrix(1.149462 0 0 0.476227 103.233763 109.841308)" fill="#c7a9ec" stroke-width="0"/><g transform="matrix(1 0 0 0.814786 14.070336-15.159838)"><g><g transform="matrix(1.408776 0 0 1.502844-54.719272 2.080854)"><ellipse rx="36.969161" ry="57.254803" transform="matrix(.614348 0.00322-.002212 0.422148 102.037093 131.18774)" fill="#c7a9ec" stroke-width="0"/><ellipse rx="36.969161" ry="57.254803" transform="matrix(.609625 0.003195-.001805 0.344386 101.885836 104.073313)" fill="#c7a9ec" stroke-width="0"/><rect width="65.204174" height="76.440849" rx="0" ry="0" transform="matrix(.682088 0 0 0.348307 79.245156 104.534013)" fill="#c7a9ec" stroke-width="0"/></g></g><g transform="matrix(1 0 0 1.19788-12.361948 42.113432)"><ellipse rx="36.969161" ry="57.254803" transform="matrix(.604662 0.003169-.00201 0.383451 101.251243 125.910611)" fill="#e7d0ff" stroke-width="0"/><ellipse rx="36.969161" ry="57.254803" transform="matrix(.604662 0.003169-.00201 0.383452 101.885836 104.073313)" fill="#e7d0ff" stroke-width="0"/><rect width="65.204174" height="76.440849" rx="0" ry="0" transform="matrix(.671072 0 0 0.348307 79.6043 104.534013)" fill="#e7d0ff" stroke-width="0"/></g><ellipse rx="30" ry="30" transform="matrix(-.086935 0.002672-.00278-.090432 88.669467 176.776054)" fill="#ba0808" stroke-width="0"/></g><g transform="matrix(1 0 0 0.792553 3.255749-9.919021)"><g transform="translate(.000001 0)"><g transform="matrix(1.408776 0 0 1.502844 32.032459 2.614769)"><ellipse rx="36.969161" ry="57.254803" transform="matrix(.614348 0.00322-.002212 0.422148 102.557141 130.83248)" fill="#c7a9ec" stroke-width="0"/><ellipse rx="36.969161" ry="57.254803" transform="matrix(.609625 0.003195-.001805 0.344386 101.932487 103.718053)" fill="#c7a9ec" stroke-width="0"/><rect width="65.204174" height="76.440849" rx="0" ry="0" transform="matrix(.682088 0 0 0.348307 80.447347 104.534015)" fill="#c7a9ec" stroke-width="0"/></g></g><g transform="matrix(1 0 0 1.19788 74.455504 41.973072)"><ellipse rx="36.969161" ry="57.254803" transform="matrix(.604662 0.003169-.00201 0.383451 101.251243 125.910611)" fill="#e7d0ff" stroke-width="0"/><ellipse rx="36.969161" ry="57.254803" transform="matrix(.604662 0.003169-.00201 0.383452 101.885836 104.073313)" fill="#e7d0ff" stroke-width="0"/><rect width="65.204174" height="76.440849" rx="0" ry="0" transform="matrix(.682088 0 0 0.348307 79.245156 104.534013)" fill="#e7d0ff" stroke-width="0"/></g><ellipse rx="30" ry="30" transform="matrix(-.086935 0.002672-.00278-.090432 176.34134 176.77605)" fill="#ba0808" stroke-width="0"/></g><path d="M124.790529,252.325371l13.186223-7.067595l12.593145,7.067594l4.892662,7.892572l1.162975,9.063765-18.648782,6.711474-18.648782-6.107689v-9.66755l5.462559-7.892571Z" transform="matrix(.731207 0 0 0.684816 39.422457-33.376157)" fill="#cbaff3" stroke-width="0.6"/><ellipse rx="9.974972" ry="9.143724" transform="matrix(.602579 0.259352-.12545 0.291471 143.548296 143.905998)" fill="#d8bdff" stroke-width="0"/><ellipse rx="9.974972" ry="9.143724" transform="matrix(-.606653 0.249674-.120769-.293442 137.362306 143.939219)" fill="#d8bdff" stroke-width="0"/><ellipse rx="14.172688" ry="10.798237" transform="matrix(.904762 0 0 1 139.392282 216.093841)" fill="#c7a9ec" stroke-width="0"/><rect width="112.706609" height="23.621146" rx="0" ry="0" transform="matrix(1 0 0 0.714286 82.026641 200.571371)" fill="#b493d3" stroke-width="0"/><path d="M89.242614,59.823044c9.537827-1.93738,19.340404,12.671299,56.020479,10.003657c25.342598,2.667642,48.74386-13.10649,57.3543-14.67203c15.51473-2.82086-23.521783,28.190149-31.344793,36.013159-11.69422,11.69422-60.02194,13.11989-60.02194-17.33967" transform="translate(-3.334552 8.002925)" fill="#b493d3" stroke-width="0.6"/><ellipse rx="14.172688" ry="10.798237" transform="matrix(.904762 0 0 1 157.614306 198.546705)" fill="#c7a9ec" stroke-width="0"/><ellipse rx="14.172688" ry="10.798237" transform="matrix(.904762 0 0 1 119.820474 198.546705)" fill="#c7a9ec" stroke-width="0"/><rect width="112.706609" height="23.621146" rx="0" ry="0" transform="matrix(1 0 0 0.714286 82.701531 183.699123)" fill="#b493d3" stroke-width="0"/><path d="M66.567659,73.342857c30.677881.000011,52.706945-28.257021,50.685195-18.148251-2.612395,13.061984,4.582796,13.784929-9.336747,21.581702-13.942722,7.809756-27.00079,12.540136-40.014627,12.752826-13.490721.220485-25.793356-4.738654-37.346986-11.771839-14.148158-8.612584-11.337478-7.357391-14.00512-23.053182-1.510913-8.889862,20.674224,18.638743,50.018285,18.638744Z" transform="matrix(1 0 0 1.359673 73.36015 1.44919)" fill="#c7a9ec" stroke-width="0.6"/><path d="M66.567659,73.342857c30.677881.000011,64.711334-27.276035,62.689584-17.167265-2.612395,13.061984-7.421593,12.803943-21.341136,20.600716-13.942722,7.809756-27.00079,12.540136-40.014627,12.752826-13.490721.220485-25.793356-4.738654-37.346986-11.771839C16.406336,69.144711,8.546449,72.361877,5.878807,56.666086c-1.510913-8.889862,31.344791,16.67677,60.688852,16.676771Z" transform="matrix(1 0 0 1.359673 72.693239 8.785204)" fill="#c7a9ec" stroke-width="0.6"/><g transform="matrix(.799721 0.387842-.382922 0.789576 126.093036-56.730264)"><rect width="24.675687" height="83.363808" rx="0" ry="0" transform="matrix(.72973 0 0 0.696 246.63348 155.19124)" fill="#362710" stroke-width="0"/><path d="M249.30113,155.19124c16.005847-2.000732,8.669832-15.338941,9.336742-75.360883.022923-2.063113,23.274979,27.511408,23.341866,28.67715c4.668373,81.363076,6.145692,66.081543-37.346978,48.684473" transform="translate(-17.339672 2.667643)" fill="url(#extd8ojJN7i46-fill)" stroke="#aeaeae" stroke-width="2"/><rect width="26.009508" height="5.335284" rx="0" ry="0" transform="matrix(.875077 0 0 1.295456 241.642993 169.258005)" fill="#6f6f6f" stroke-width="0"/></g></svg>
